<svg width="32" height="32" viewBox="0 0 32 32" fill="none" xmlns="http://www.w3.org/2000/svg">
<path fill-rule="evenodd" clip-rule="evenodd" d="M0 13C0 5.8203 5.8203 0 13 0C16.4478 0 19.7544 1.36964 22.1924 3.80761C24.6304 6.24558 26 9.55219 26 13C26 20.1797 20.1797 26 13 26C5.8203 26 0 20.1797 0 13ZM2 13C2 19.0751 6.92487 24 13 24C19.0751 24 24 19.0751 24 13C24 6.92487 19.0751 2 13 2C6.92487 2 2 6.92487 2 13ZM22.5812 23.9934L23.9954 22.5792L31.7029 30.2867L30.2886 31.7009L22.5812 23.9934Z" fill="#343741"/>
</svg>
