<svg width="203" height="36" viewBox="0 0 203 36" fill="none" xmlns="http://www.w3.org/2000/svg">
<path d="M15.146 35.644C24.622 35.644 28.762 30.768 28.762 25.294C28.762 18.256 22.414 16.37 16.434 14.76C11.972 13.518 9.44201 12.552 9.44201 9.83798C9.44201 7.81398 11.19 6.43398 14.364 6.43398C17.676 6.43398 20.942 8.36598 22.736 11.264L27.934 7.30798C25.542 3.67398 21.402 0.315979 14.41 0.315979C7.09601 0.315979 2.12801 4.13398 2.12801 10.482C2.12801 17.612 8.47601 19.176 14.548 20.878C19.01 22.12 21.448 23.224 21.448 25.8C21.448 28.422 18.964 29.71 15.514 29.71C11.604 29.71 8.20001 27.64 6.31401 23.914L0.656006 27.272C3.18601 32.148 7.78601 35.644 15.146 35.644Z" fill="black"/>
<path d="M43.0044 35.506C47.2824 35.506 50.8244 34.264 53.6764 31.826L50.8244 27.41C49.1684 28.928 46.4544 30.354 43.5564 30.354C40.4744 30.354 38.2204 28.79 37.8524 24.742H54.0904V23.638C54.0904 12.506 47.8804 9.97598 42.8204 9.97598C37.7604 9.97598 30.4924 13.242 30.4924 22.764C30.4924 32.24 36.6104 35.506 43.0044 35.506ZM37.9444 20.372C38.4964 16.784 40.4744 15.266 42.7744 15.266C45.5344 15.266 47.0984 16.922 47.4664 20.372H37.9444Z" fill="black"/>
<path d="M65.0517 29.802C63.4417 29.802 62.3377 29.02 62.3377 27.456C62.3377 25.202 64.8217 23.73 70.6637 23.132V27.686C69.4217 28.928 67.6277 29.802 65.0517 29.802ZM62.1077 35.368C65.7417 35.368 68.4097 33.942 70.6637 31.412C70.6637 32.792 70.8937 33.988 71.2157 35H78.5757C78.0697 33.758 77.8857 31.964 77.8857 29.02V19.59C77.8857 13.288 75.1257 9.97598 68.4097 9.97598C62.2917 9.97598 58.6117 12.138 56.1737 14.346L59.3017 18.578C61.5557 16.83 64.2237 15.542 67.3517 15.542C69.7437 15.542 70.6637 16.692 70.6637 18.486V19.084C59.8997 19.958 55.1157 23.086 55.1157 28.744C55.1157 32.93 58.3357 35.368 62.1077 35.368Z" fill="black"/>
<path d="M89.3005 35V19.774C90.6805 17.98 92.8885 16.416 95.8325 16.416C96.2925 16.416 97.4885 16.508 97.7645 16.554L97.8565 9.97598H97.6265C93.0265 9.97598 90.6805 12.506 89.3465 14.576H89.3005V10.482H81.8945V35H89.3005Z" fill="black"/>
<path d="M109.606 35.506C116.092 35.506 119.128 31.872 120.692 28.054L114.574 25.938C113.516 29.25 111.722 30.308 109.744 30.308C106.34 30.308 104.96 27.18 104.96 22.81C104.96 17.934 106.846 15.404 109.836 15.404C111.998 15.404 113.424 16.416 114.39 19.544L120.6 17.474C119.174 13.518 116.598 9.97598 109.928 9.97598C104.5 9.97598 97.5536 12.966 97.5536 22.764C97.5536 32.286 103.856 35.506 109.606 35.506Z" fill="black"/>
<path d="M130.429 35V18.532C132.085 17.106 133.787 16.094 135.811 16.094C137.835 16.094 138.663 17.244 138.663 19.452V35H146.069V17.106C146.069 12.046 143.079 9.97598 138.893 9.97598C134.615 9.97598 131.901 12.414 130.429 14.346V0.959978H123.023V35H130.429Z" fill="black"/>
<path d="M164.247 35.644C171.377 35.644 175.701 31.32 177.357 24.604L173.539 23.73C172.113 29.25 169.123 31.964 164.293 31.964C157.945 31.964 153.897 26.812 153.897 17.796C153.897 9.37798 157.853 4.04198 164.201 4.04198C169.169 4.04198 171.515 6.66398 172.987 11.816L176.851 10.758C175.287 4.50198 171.469 0.315979 164.247 0.315979C155.737 0.315979 149.803 7.21598 149.803 17.842C149.803 28.974 155.599 35.644 164.247 35.644Z" fill="#69707D"/>
<path d="M191.309 35.506C197.243 35.506 202.579 31.182 202.579 22.856C202.579 14.484 197.243 10.206 191.309 10.206C185.329 10.206 179.993 14.484 179.993 22.856C179.993 31.182 185.375 35.506 191.309 35.506ZM191.309 32.148C186.387 32.148 183.995 28.008 183.995 22.856C183.995 17.382 186.663 13.61 191.309 13.61C196.139 13.61 198.577 17.796 198.577 22.856C198.577 28.422 195.909 32.148 191.309 32.148Z" fill="#69707D"/>
</svg>
