<svg width="17" height="16" viewBox="0 0 17 16" fill="none" xmlns="http://www.w3.org/2000/svg">
<path d="M14.1008 12.1863L12.7428 10.8283C12.7178 10.8033 12.6848 10.7943 12.6588 10.7723C13.1888 9.9783 13.4998 9.0263 13.4998 7.9993C13.4998 6.9743 13.1888 6.0213 12.6588 5.2273C12.6848 5.2063 12.7178 5.1963 12.7428 5.1713L14.1008 3.8133C14.9758 4.9823 15.4998 6.4283 15.4998 7.9993C15.4998 9.5723 14.9758 11.0183 14.1008 12.1863ZM8.49976 14.9993C6.92776 14.9993 5.48176 14.4753 4.31376 13.6003L5.67176 12.2423C5.69676 12.2173 5.70576 12.1853 5.72676 12.1583C6.52076 12.6883 7.47376 12.9993 8.49976 12.9993C9.52576 12.9993 10.4788 12.6883 11.2728 12.1583C11.2938 12.1853 11.3038 12.2173 11.3288 12.2423L12.6858 13.6003C11.5178 14.4753 10.0718 14.9993 8.49976 14.9993ZM2.89876 12.1863C2.02476 11.0183 1.49976 9.5723 1.49976 7.9993C1.49976 6.4283 2.02476 4.9823 2.89876 3.8133L4.25776 5.1713C4.28176 5.1963 4.31476 5.2063 4.34176 5.2273C3.81076 6.0213 3.49976 6.9743 3.49976 7.9993C3.49976 9.0263 3.81076 9.9783 4.34176 10.7723C4.31476 10.7943 4.28176 10.8033 4.25776 10.8283L2.89876 12.1863ZM8.49976 11.9993C6.29076 11.9993 4.49976 10.2093 4.49976 7.9993C4.49976 5.7903 6.29076 3.9993 8.49976 3.9993C10.7088 3.9993 12.4998 5.7903 12.4998 7.9993C12.4998 10.2093 10.7088 11.9993 8.49976 11.9993ZM8.49976 0.999298C10.0718 0.999298 11.5178 1.5243 12.6858 2.3993L11.3288 3.7573C11.3038 3.7823 11.2938 3.8143 11.2728 3.8413C10.4788 3.3113 9.52576 2.9993 8.49976 2.9993C7.47376 2.9993 6.52076 3.3113 5.72676 3.8413C5.70576 3.8143 5.69676 3.7823 5.67176 3.7573L4.31376 2.3993C5.48176 1.5243 6.92776 0.999298 8.49976 0.999298ZM8.49976 -0.000701904C4.08176 -0.000701904 0.499756 3.5823 0.499756 7.9993C0.499756 12.4183 4.08176 15.9993 8.49976 15.9993C12.9178 15.9993 16.4998 12.4183 16.4998 7.9993C16.4998 3.5823 12.9178 -0.000701904 8.49976 -0.000701904Z" fill="#006BB4"/>
</svg>
