<svg width="81" height="81" viewBox="0 0 81 81" fill="none" xmlns="http://www.w3.org/2000/svg">
<path d="M68.8541 61.6931L61.9792 54.8183C61.8526 54.6917 61.6856 54.6461 61.554 54.5348C64.2371 50.5151 65.8115 45.6956 65.8115 40.4965C65.8115 35.3074 64.2371 30.4828 61.554 26.4632C61.6856 26.3569 61.8526 26.3063 61.9792 26.1797L68.8541 19.3048C73.2838 25.2229 75.9365 32.5433 75.9365 40.4965C75.9365 48.4598 73.2838 55.7801 68.8541 61.6931ZM40.499 75.934C32.5408 75.934 25.2204 73.2812 19.3074 68.8515L26.1823 61.9766C26.3088 61.8501 26.3544 61.6881 26.4607 61.5514C30.4803 64.2345 35.3049 65.809 40.499 65.809C45.6931 65.809 50.5177 64.2345 54.5373 61.5514C54.6437 61.6881 54.6943 61.8501 54.8208 61.9766L61.6906 68.8515C55.7776 73.2812 48.4573 75.934 40.499 75.934ZM12.144 61.6931C7.71934 55.7801 5.06152 48.4598 5.06152 40.4965C5.06152 32.5433 7.71934 25.2229 12.144 19.3048L19.0239 26.1797C19.1454 26.3063 19.3125 26.3569 19.4491 26.4632C16.761 30.4828 15.1865 35.3074 15.1865 40.4965C15.1865 45.6956 16.761 50.5151 19.4491 54.5348C19.3125 54.6461 19.1454 54.6917 19.0239 54.8183L12.144 61.6931ZM40.499 60.7465C29.316 60.7465 20.249 51.6846 20.249 40.4965C20.249 29.3134 29.316 20.2465 40.499 20.2465C51.6821 20.2465 60.749 29.3134 60.749 40.4965C60.749 51.6846 51.6821 60.7465 40.499 60.7465ZM40.499 5.05896C48.4573 5.05896 55.7776 7.71677 61.6906 12.1465L54.8208 19.0213C54.6943 19.1479 54.6437 19.3099 54.5373 19.4466C50.5177 16.7635 45.6931 15.184 40.499 15.184C35.3049 15.184 30.4803 16.7635 26.4607 19.4466C26.3544 19.3099 26.3088 19.1479 26.1823 19.0213L19.3074 12.1465C25.2204 7.71677 32.5408 5.05896 40.499 5.05896ZM40.499 -0.00354004C18.1329 -0.00354004 -0.000976562 18.1354 -0.000976562 40.4965C-0.000976562 62.8676 18.1329 80.9965 40.499 80.9965C62.8652 80.9965 80.999 62.8676 80.999 40.4965C80.999 18.1354 62.8652 -0.00354004 40.499 -0.00354004Z" fill="#D3DAE6"/>
</svg>
