<?xml version="1.0" encoding="UTF-8"?>
<svg width="64px" height="64px" viewBox="0 0 64 64" version="1.1" xmlns="http://www.w3.org/2000/svg" xmlns:xlink="http://www.w3.org/1999/xlink">
    <!-- Generator: Sketch 55.1 (78136) - https://sketchapp.com -->
    <title>icon-machine-learning-64-color</title>
    <desc>Created with Sketch.</desc>
    <g id="icon-machine-learning-64-color" stroke="none" stroke-width="1" fill="none" fill-rule="evenodd">
        <path d="M22,34.997 L22,38.035 C22,38.682 21.588,39.253 20.975,39.458 L8,43.783 L8,22.018 C8,21.51 8.253,21.041 8.678,20.763 L16.322,15.751 L14.678,13.243 L7.034,18.254 C5.76,19.088 5,20.495 5,22.018 L5,44.117 C5,45.508 5.659,46.843 6.762,47.688 L14.587,53.687 L16.413,51.307 L9.898,46.312 L21.923,42.304 C23.763,41.691 25,39.975 25,38.035 L25,34.997 L22,34.997 Z" id="Fill-1" fill="#00BFB2"></path>
        <path d="M23.5,23.998 C22.86,23.998 22.219,24.242 21.732,24.729 C20.758,25.704 20.758,27.29 21.732,28.265 C22.706,29.24 24.292,29.24 25.268,28.265 C26.242,27.29 26.242,25.704 25.268,24.729 C24.781,24.242 24.14,23.998 23.5,23.998 M23.5,31.994 C22.092,31.994 20.683,31.458 19.611,30.387 C17.467,28.242 17.467,24.752 19.61,22.608 C21.756,20.464 25.245,20.464 27.389,22.607 C29.533,24.752 29.533,28.242 27.39,30.386 L27.389,30.387 C26.317,31.458 24.908,31.994 23.5,31.994" id="Fill-3" fill="#535966"></path>
        <path d="M23.5,53.998 C22.86,53.998 22.219,54.242 21.732,54.729 C20.758,55.704 20.758,57.29 21.732,58.265 C22.706,59.24 24.292,59.24 25.268,58.265 C26.242,57.29 26.242,55.704 25.268,54.729 C24.781,54.242 24.14,53.998 23.5,53.998 M23.5,61.994 C22.092,61.994 20.683,61.458 19.611,60.387 C17.467,58.242 17.467,54.752 19.61,52.608 C21.756,50.464 25.245,50.464 27.389,52.607 C29.533,54.752 29.533,58.242 27.39,60.386 L27.389,60.387 C26.317,61.458 24.908,61.994 23.5,61.994" id="Fill-5" fill="#535966"></path>
        <path d="M23.5,6.998 C22.86,6.998 22.219,7.242 21.732,7.729 C20.758,8.704 20.758,10.29 21.732,11.265 C22.706,12.24 24.292,12.24 25.268,11.265 C26.242,10.29 26.242,8.704 25.268,7.729 C24.781,7.242 24.14,6.998 23.5,6.998 M23.5,14.994 C22.092,14.994 20.683,14.458 19.611,13.387 C17.467,11.242 17.467,7.752 19.61,5.608 C21.756,3.464 25.245,3.464 27.389,5.607 C29.533,7.752 29.533,11.242 27.39,13.386 L27.389,13.387 C26.317,14.458 24.908,14.994 23.5,14.994" id="Fill-7" fill="#535966"></path>
        <path d="M56.9668,18.2544 L49.3218,13.2424 L47.6778,15.7514 L55.3228,20.7634 C55.7468,21.0414 55.9998,21.5104 55.9998,22.0174 L55.9998,43.7824 L43.0258,39.4584 C42.4118,39.2534 41.9998,38.6814 41.9998,38.0344 L41.9998,34.9974 L38.9998,34.9974 L38.9998,38.0344 C38.9998,39.9754 40.2368,41.6914 42.0768,42.3034 L54.1018,46.3124 L47.5878,51.3064 L49.4128,53.6874 L57.2378,47.6884 C58.3408,46.8424 58.9998,45.5074 58.9998,44.1164 L58.9998,22.0174 C58.9998,20.4954 58.2398,19.0874 56.9668,18.2544" id="Fill-10" fill="#00BFB2"></path>
        <path d="M38.7319,28.2651 C39.7079,29.2401 41.2939,29.2391 42.2679,28.2651 C43.2419,27.2901 43.2419,25.7041 42.2679,24.7291 C41.2939,23.7541 39.7069,23.7541 38.7319,24.7291 C37.7579,25.7031 37.7579,27.2901 38.7319,28.2651 M40.4999,31.9941 C39.0909,31.9941 37.6829,31.4581 36.6109,30.3871 L36.6099,30.3861 C34.4669,28.2421 34.4669,24.7521 36.6099,22.6081 C38.7559,20.4641 42.2449,20.4641 44.3889,22.6071 C46.5329,24.7521 46.5329,28.2421 44.3899,30.3861 C43.3169,31.4581 41.9079,31.9941 40.4999,31.9941" id="Fill-12" fill="#535966"></path>
        <path d="M38.7319,58.2651 C39.7079,59.2401 41.2939,59.2391 42.2679,58.2651 C43.2419,57.2901 43.2419,55.7041 42.2679,54.7291 C41.2939,53.7541 39.7069,53.7541 38.7319,54.7291 C37.7579,55.7031 37.7579,57.2901 38.7319,58.2651 M40.4999,61.9941 C39.0909,61.9941 37.6829,61.4581 36.6109,60.3871 L36.6099,60.3861 C34.4669,58.2421 34.4669,54.7521 36.6099,52.6081 C38.7559,50.4641 42.2449,50.4641 44.3889,52.6071 C46.5329,54.7521 46.5329,58.2421 44.3899,60.3861 C43.3169,61.4581 41.9079,61.9941 40.4999,61.9941" id="Fill-14" fill="#535966"></path>
        <path d="M38.7319,11.2651 C39.7079,12.2401 41.2939,12.2391 42.2679,11.2651 C43.2419,10.2901 43.2419,8.7041 42.2679,7.7291 C41.2939,6.7541 39.7069,6.7541 38.7319,7.7291 C37.7579,8.7031 37.7579,10.2901 38.7319,11.2651 M40.4999,14.9941 C39.0909,14.9941 37.6829,14.4581 36.6109,13.3871 L36.6099,13.3861 C34.4669,11.2421 34.4669,7.7521 36.6099,5.6081 C38.7559,3.4641 42.2449,3.4641 44.3889,5.6071 C46.5329,7.7521 46.5329,11.2421 44.3899,13.3861 C43.3169,14.4581 41.9079,14.9941 40.4999,14.9941" id="Fill-16" fill="#535966"></path>
    </g>
</svg>