<?xml version="1.0" encoding="UTF-8"?>
<svg width="64px" height="64px" viewBox="0 0 64 64" version="1.1" xmlns="http://www.w3.org/2000/svg" xmlns:xlink="http://www.w3.org/1999/xlink">
    <!-- Generator: Sketch 55.1 (78136) - https://sketchapp.com -->
    <title>icon-heartbeat-64-color</title>
    <desc>Created with Sketch.</desc>
    <g id="icon-heartbeat-64-color" stroke="none" stroke-width="1" fill="none" fill-rule="evenodd">
        <rect id="Rectangle" fill-rule="nonzero" x="0" y="0" width="64" height="64"></rect>
        <g id="Group" transform="translate(4.000000, 6.000000)" fill-rule="nonzero">
            <path d="M5.62670176,27.6847872 C2.128416,23.7031311 0.582913484,21.1639487 0.125409111,17.6410883 C-0.532748702,12.5768069 1.43444898,7.35903176 5.26412799,3.95586005 C11.0830823,-1.21864656 19.6899875,-1.26120738 25.5667114,3.53291021 L23.6609786,5.84118515 C18.9313028,1.98047052 11.9654201,2.01131947 7.25728427,6.19803037 C4.16714582,8.94402347 2.57067473,13.1784871 3.10040865,17.2545941 C3.44619413,19.9172003 4.67268299,22.0049664 7.56242852,25.3401828 L5.62670176,27.6847872 L5.62670176,27.6847872 Z" id="Path" fill="#00BFB2"></path>
            <path d="M8.04091144,30.2985482 L8.84308781,29.3265196 L28.7099178,5.25469162 C34.4549721,-1.20807984 44.3530989,-1.78957811 50.8144397,3.95506483 C54.472089,7.20568916 56.4603243,12.1358316 56.0218598,16.9688567 C55.6588666,20.9683143 53.9624501,23.6666166 49.6884738,28.5307562 C42.8841827,36.2692592 35.9803642,44.1220561 28.9546074,52.1146043 L27.8125193,53.4138513 L8.04091144,30.2985482 Z M11.9590886,30.263998 L27.8434846,48.8346995 C34.4758262,41.2898093 41.0001696,33.8687047 47.4351871,26.5501758 C51.2982128,22.153732 52.7482827,19.8472658 53.0341351,16.6977458 C53.3859126,12.820238 51.7728216,8.82032484 48.8213351,6.1972812 C43.5980598,1.55337632 35.5962799,2.0234674 30.9879122,7.20602657 L11.9590886,30.263998 Z" id="Stroke-6" fill="#535966"></path>
        </g>
    </g>
</svg>