<svg xmlns="http://www.w3.org/2000/svg" width="64" height="64" viewBox="0 0 64 64">
  <g fill="none" fill-rule="evenodd">
    <path fill="#535966" fill-rule="nonzero" d="M28 5L29.5 5C45.0827142 5 57.7445043 17.5059629 57.9961818 33.0287004L58 33.5 58 57.5 55 57.5 55 33.5C55 20.0560783 44.5963063 9.04206937 31.4007132 8.06976753L31 8.04338537 31 19.92 28 18.48 28 5 29.5 5 28 5zM5 18L6.5 18C12.7813225 18 18.7236426 19.4674332 24.0004391 22.080013L24.0002235 25.4619631C19.3851717 22.9358877 14.1660593 21.3781152 8.61782286 21.0604642L8.00001168 21.0302869 8 41.0673284C16.1758278 41.8047518 22.6481788 48.5118982 22.9864381 56.8448101L22.9967799 57.1835108 23 58.997339 20 59.002661 19.9970981 57.2169512C19.8486933 49.9861274 14.0206173 44.1683349 6.81417885 44.0035879L6.5 44 5 44 5 18 6.5 18 5 18z"/>
    <path fill="#00BFB3" fill-rule="nonzero" d="M47.0122013,59 L27.9999576,59 L28.0009314,24.5104746 L30.3085798,25.9851701 C40.3677451,32.4134483 46.823907,43.5287245 46.9915657,56.3452352 L47.0122013,59 Z M43.9682137,55.4705624 C43.5670583,45.0803646 38.6706369,36.0032617 31.0007728,30.1295432 L31.0000424,56 L43.9847289,56 L43.9682137,55.4705624 Z"/>
  </g>
</svg>
