<?xml version="1.0" encoding="UTF-8"?>
<svg width="64px" height="64px" viewBox="0 0 64 64" version="1.1" xmlns="http://www.w3.org/2000/svg" xmlns:xlink="http://www.w3.org/1999/xlink">
    <!-- Generator: Sketch 55.1 (78136) - https://sketchapp.com -->
    <title>icon-packetbeat-64-color</title>
    <desc>Created with Sketch.</desc>
    <g id="icon-packetbeat-64-color" stroke="none" stroke-width="1" fill="none" fill-rule="evenodd">
        <rect id="Rectangle" fill-rule="nonzero" x="0" y="0" width="64" height="64"></rect>
        <g id="Group-11" transform="translate(3.000000, 3.000000)">
            <path d="M29,25 C26.794,25 25,26.794 25,29 C25,31.206 26.794,33 29,33 C31.206,33 33,31.206 33,29 C33,26.794 31.206,25 29,25 M29,36 C25.141,36 22,32.859 22,29 C22,25.141 25.141,22 29,22 C32.859,22 36,25.141 36,29 C36,32.859 32.859,36 29,36" id="Fill-1" fill="#00BFB2"></path>
            <path d="M3,7 C3,4.794 4.794,3 7,3 C9.206,3 11,4.794 11,7 C11,9.206 9.206,11 7,11 C4.794,11 3,9.206 3,7 L3,7 Z M22.86,20.739 L12.89,10.769 C13.589,9.679 14,8.388 14,7 C14,3.141 10.859,0 7,0 C3.141,0 0,3.141 0,7 C0,10.859 3.141,14 7,14 C8.388,14 9.679,13.589 10.769,12.89 L20.739,22.86 L22.86,20.739 Z" id="Fill-3" fill="#535966"></path>
            <path d="M51,11 C48.794,11 47,9.206 47,7 C47,4.794 48.794,3 51,3 C53.206,3 55,4.794 55,7 C55,9.206 53.206,11 51,11 M51,0 C47.141,0 44,3.141 44,7 C44,8.388 44.411,9.679 45.11,10.769 L35.14,20.739 L37.261,22.86 L47.231,12.89 C48.321,13.589 49.612,14 51,14 C54.859,14 58,10.859 58,7 C58,3.141 54.859,0 51,0" id="Fill-5" fill="#535966"></path>
            <path d="M7,55 C4.794,55 3,53.206 3,51 C3,48.794 4.794,47 7,47 C9.206,47 11,48.794 11,51 C11,53.206 9.206,55 7,55 L7,55 Z M22.86,37.261 L20.739,35.14 L10.769,45.11 C9.679,44.411 8.388,44 7,44 C3.141,44 0,47.141 0,51 C0,54.859 3.141,58 7,58 C10.859,58 14,54.859 14,51 C14,49.612 13.589,48.32 12.89,47.231 L22.86,37.261 Z" id="Fill-7" fill="#535966"></path>
            <path d="M51,55 C48.794,55 47,53.206 47,51 C47,48.794 48.794,47 51,47 C53.206,47 55,48.794 55,51 C55,53.206 53.206,55 51,55 M51,44 C49.612,44 48.321,44.411 47.231,45.11 L37.261,35.14 L35.14,37.261 L45.11,47.231 C44.411,48.32 44,49.612 44,51 C44,54.859 47.141,58 51,58 C54.859,58 58,54.859 58,51 C58,47.141 54.859,44 51,44" id="Fill-9" fill="#535966"></path>
        </g>
    </g>
</svg>