<?xml version="1.0" encoding="UTF-8"?>
<svg width="64px" height="64px" viewBox="0 0 64 64" version="1.1" xmlns="http://www.w3.org/2000/svg" xmlns:xlink="http://www.w3.org/1999/xlink">
    <!-- Generator: Sketch 55.1 (78136) - https://sketchapp.com -->
    <title>icon-function-beat-64-color</title>
    <desc>Created with Sketch.</desc>
    <g id="icon-function-beat-64-color" stroke="none" stroke-width="1" fill="none" fill-rule="evenodd">
        <rect id="Rectangle" fill-rule="nonzero" x="0" y="0" width="64" height="64"></rect>
        <g id="Group" transform="translate(2.000000, 4.000000)" fill-rule="nonzero">
            <path d="M59.0563,32.6948 C59.0563,38.6005519 54.2673303,43.3888 48.3613,43.3888 L48,43.3888 L48,40.3328 L48.3613,40.3328 C52.5796512,40.3328 56.0003,36.9126666 56.0003,32.6948 C56.0003,29.5361078 54.0548295,26.7459307 51.1493163,25.6014899 L49.9846198,25.1427324 L50.2052125,23.910533 C50.4000492,22.8222028 50.5003,21.7889357 50.5003,20.7778 C50.5003,10.9900487 42.5657666,3.0558 32.7783,3.0558 C24.5523074,3.0558 17.4729649,8.71663411 15.5687591,16.6168437 L15.3143238,17.6724503 L14.2337637,17.7793738 C8.48069558,18.3486509 4.0553,23.2042341 4.0553,29.0278 C4.0553,35.2716813 9.11696352,40.3328 15.3613,40.3328 L16,40.3328 L16,43.3888 L15.3613,43.3888 C7.42925496,43.3888 0.9993,36.9595372 0.9993,29.0278 C0.9993,21.9915962 6.08269968,16.0692372 12.8704093,14.8833294 C15.4468734,6.15476406 23.4879529,-0.0002 32.7783,-0.0002 C44.2535242,-0.0002 53.5563,9.30224199 53.5563,20.7778 C53.5563,21.601829 53.5009264,22.4310788 53.3933508,23.2771179 C56.8256264,25.1079727 59.0563,28.6891106 59.0563,32.6948 Z" id="Stroke-1" fill="#535966"></path>
            <path d="M22.8939279,55.0278 L36.3722146,35.0558 L19.0817513,35.0558 L33.3650138,12.1108 L36.9647512,12.1108 L24.5838487,31.9998 L42.1213854,31.9998 L26.5807292,55.0278 L22.8939279,55.0278 Z" id="Combined-Shape" fill="#00BFB2"></path>
        </g>
    </g>
</svg>