<svg xmlns="http://www.w3.org/2000/svg" width="64" height="64" viewBox="0 0 64 64">
  <g fill="none" fill-rule="evenodd">
    <path fill="#343741" d="M37.0625,32 C37.0625,34.796 34.7955,37.062 32.0005,37.062 C29.2045,37.062 26.9375,34.796 26.9375,32 C26.9375,29.204 29.2045,26.938 32.0005,26.938 C34.7955,26.938 37.0625,29.204 37.0625,32"/>
    <path fill="#F04E98" d="M38.2227,24.1045 C38.2657,24.1385 38.3097,24.1735 38.3527,24.2085 C39.2907,24.9725 40.5857,25.1205 41.6777,24.5975 L55.1717,18.1415 C51.8747,12.6405 46.6757,8.4165 40.4827,6.3675 L37.1187,20.9425 C36.8457,22.1215 37.2717,23.3555 38.2227,24.1045"/>
    <path fill="#07C" d="M32.1855,44.1836 C31.9185,43.0026 30.9995,42.0756 29.8185,41.8136 C25.3165,40.8156 21.9375,36.7986 21.9375,31.9996 C21.9375,27.1826 25.3415,23.1526 29.8705,22.1736 C31.0525,21.9186 31.9755,20.9946 32.2475,19.8156 L35.6105,5.2476 C34.4285,5.0896 33.2245,4.9996 31.9995,4.9996 C17.0875,4.9996 4.9995,17.0886 4.9995,31.9996 C4.9995,46.9116 17.0875,58.9996 31.9995,58.9996 C33.1785,58.9996 34.3365,58.9156 35.4745,58.7696 L32.1855,44.1836 Z"/>
    <path fill="#343741" d="M57.2852,41.478 C58.3902,38.528 59.0002,35.336 59.0002,32 C59.0002,28.713 58.4112,25.563 57.3352,22.649 L43.7522,29.148 C42.6532,29.674 41.9622,30.786 41.9611902,32.004 L41.9611902,32.054 C41.9582,33.27 42.6432,34.381 43.7372,34.911 L57.2852,41.478 Z"/>
    <path fill="#F04E98" d="M38.3105,39.8237 C38.2675,39.8577 38.2245,39.8917 38.1815,39.9257 C37.2275,40.6697 36.7955,41.9007 37.0615,43.0817 L40.3535,57.6767 C46.5595,55.6577 51.7815,51.4597 55.1045,45.9777 L41.6395,39.4507 C40.5495,38.9227 39.2525,39.0637 38.3105,39.8237"/>
  </g>
</svg>
