<?xml version="1.0" encoding="UTF-8"?>
<svg width="64px" height="64px" viewBox="0 0 64 64" version="1.1" xmlns="http://www.w3.org/2000/svg" xmlns:xlink="http://www.w3.org/1999/xlink">
    <!-- Generator: Sketch 55.2 (78181) - https://sketchapp.com -->
    <title>logo-workplace-64-color</title>
    <desc>Created with Sketch.</desc>
    <g id="logo-workplace-64-color" stroke="none" stroke-width="1" fill="none" fill-rule="evenodd">
        <path d="M34.0325821,50.9804141 L38.3463631,45.525731 C41.0914327,41.9169516 42.8554234,36.9087031 42.8197879,31.918787 C42.7850627,27.0563499 41.020834,22.2113205 38.3463631,18.6955898 L34.0325821,13.0018505 L36.2521973,10.2192383 C38.496582,7.81896973 41.5003466,6 45,6 L55.9987132,6 L55.9987132,58 L45,58 C41.5003466,58 38.2648926,55.9265137 35.8018799,53.0529785 L34.0325821,50.9804141 Z" id="Path" fill="#FEC514"></path>
        <path d="M8.01025782,58 L8.01025782,6 L17.6947813,6 C20.5443988,6 23.2777054,7.36155768 25.0056126,9.63941492 L34.762916,22.5003337 C39.0930336,28.1924977 39.0930336,35.844194 34.7609446,41.5393329 L25.0026555,54.3705017 C23.2737627,56.6434007 20.5443988,58 17.7006954,58 L8.01025782,58 Z" id="Fill-1" fill="#F04E98"></path>
        <path d="M30.2040236,47.5231867 L24.5911589,41.4996663 C19.8025838,35.8075023 19.8025838,28.155806 24.593339,22.4606671 L30.0046997,16.2235107 L34.7643359,22.4606671 C39.1646482,28.152831 39.1666515,35.890792 34.7643359,41.5859309 L30.2040236,47.5231867 Z" id="Path" fill="#343741"></path>
    </g>
</svg>