<?xml version="1.0" encoding="UTF-8"?>
<svg width="64px" height="64px" viewBox="0 0 64 64" version="1.1" xmlns="http://www.w3.org/2000/svg" xmlns:xlink="http://www.w3.org/1999/xlink">
    <!-- Generator: Sketch 54.1 (76490) - https://sketchapp.com -->
    <title>icon / product-logo / 64x64px / cloud / color</title>
    <desc>Created with Sketch.</desc>
    <g id="icon-/-product-logo-/-64x64px-/-cloud-/-color" stroke="none" stroke-width="1" fill="none" fill-rule="evenodd">
        <g id="logo-cloud-64x64-color" transform="translate(8.000000, 5.000000)">
            <path d="M37.5176,35.8779 C36.0096,35.2389 34.2716,35.3659 32.8926,36.2479 C31.1906,37.3359 29.1696,37.9689 26.9996,37.9689 C24.8296,37.9689 22.8096,37.3359 21.1076,36.2479 C19.7286,35.3659 17.9906,35.2389 16.4826,35.8779 C12.3316,37.6369 8.7116,40.4059 5.9296,43.8749 C10.8786,50.0449 18.4756,53.9999 26.9996,53.9999 C35.5246,53.9999 43.1216,50.0449 48.0706,43.8749 C45.2886,40.4059 41.6676,37.6369 37.5176,35.8779" id="Fill-1" fill="#1BA9F5"></path>
            <path d="M37.5176,35.8779 C36.0096,35.2389 34.2716,35.3659 32.8926,36.2479 C31.1906,37.3359 29.1696,37.9689 26.9996,37.9689 C24.8296,37.9689 22.8096,37.3359 21.1076,36.2479 C19.7286,35.3659 17.9906,35.2389 16.4826,35.8779 C12.3316,37.6369 8.7116,40.4059 5.9296,43.8749 C10.8786,50.0449 18.4756,53.9999 26.9996,53.9999 C35.5246,53.9999 43.1216,50.0449 48.0706,43.8749 C45.2886,40.4059 41.6676,37.6369 37.5176,35.8779" id="Fill-4" fill="#00BFB3"></path>
            <path d="M27,0 C18.476,0 10.879,3.955 5.93,10.125 C8.712,13.594 12.332,16.363 16.482,18.122 C17.99,18.761 19.729,18.634 21.107,17.752 C22.81,16.664 24.83,16.031 27,16.031 C29.17,16.031 31.19,16.664 32.893,17.752 C34.271,18.634 36.01,18.761 37.518,18.122 C41.668,16.363 45.288,13.594 48.07,10.125 C43.121,3.955 35.524,0 27,0" id="Fill-7" fill="#0077CC"></path>
            <path d="M16.4824,18.1221 C12.3324,16.3631 8.7114,13.5941 5.9294,10.1251 C5.9294,10.1241 5.9304,10.1241 5.9304,10.1231 C2.2204,14.7451 0.0004,20.6121 0.0004,27.0001 C0.0004,31.5191 1.1164,35.7761 3.0794,39.5181 C6.2384,35.9631 10.1644,33.1251 14.5314,31.2741 C15.2224,30.9821 15.9364,30.7771 16.6654,30.6451 C16.2614,29.5031 16.0314,28.2801 16.0314,27.0001 C16.0314,22.9421 18.2404,19.4081 21.5154,17.5111 C21.3784,17.5901 21.2404,17.6671 21.1074,17.7521 C19.7284,18.6341 17.9904,18.7611 16.4824,18.1221" id="Fill-9" fill="#343741"></path>
        </g>
    </g>
</svg>