<?xml version="1.0" encoding="UTF-8"?>
<svg width="64px" height="64px" viewBox="0 0 64 64" version="1.1" xmlns="http://www.w3.org/2000/svg" xmlns:xlink="http://www.w3.org/1999/xlink">
    <!-- Generator: Sketch 54.1 (76490) - https://sketchapp.com -->
    <title>icon / product-logo / 64x64px / ece / color</title>
    <desc>Created with Sketch.</desc>
    <defs>
        <polygon id="path-1" points="0.9296 0.477306077 43.07 0.477306077 43.07 18.9999 0.9296 18.9999"></polygon>
        <polygon id="path-3" points="0.9296 0.477306077 43.07 0.477306077 43.07 18.9999 0.9296 18.9999"></polygon>
    </defs>
    <g id="icon-/-product-logo-/-64x64px-/-ece-/-color" stroke="none" stroke-width="1" fill="none" fill-rule="evenodd">
        <g id="logo-elastic-cloud-enterprise-64x64-color" transform="translate(8.000000, 5.000000)">
            <g id="Group-3" transform="translate(5.000000, 35.000000)">
                <mask id="mask-2" fill="white">
                    <use xlink:href="#path-1"></use>
                </mask>
                <g id="Clip-2"></g>
                <path d="M32.5176,0.8779 C31.0096,0.2389 29.2716,0.3659 27.8926,1.2479 C26.1906,2.3359 24.1696,2.9689 21.9996,2.9689 C19.8296,2.9689 17.8096,2.3359 16.1076,1.2479 C14.7286,0.3659 12.9906,0.2389 11.4826,0.8779 C7.3316,2.6369 3.7116,5.4059 0.9296,8.8749 C5.8786,15.0449 13.4756,18.9999 21.9996,18.9999 C30.5246,18.9999 38.1216,15.0449 43.0706,8.8749 C40.2886,5.4059 36.6676,2.6369 32.5176,0.8779" id="Fill-1" fill="#1BA9F5" mask="url(#mask-2)"></path>
            </g>
            <g id="Group-6" transform="translate(5.000000, 35.000000)">
                <mask id="mask-4" fill="white">
                    <use xlink:href="#path-3"></use>
                </mask>
                <g id="Clip-5"></g>
                <path d="M32.5176,0.8779 C31.0096,0.2389 29.2716,0.3659 27.8926,1.2479 C26.1906,2.3359 24.1696,2.9689 21.9996,2.9689 C19.8296,2.9689 17.8096,2.3359 16.1076,1.2479 C14.7286,0.3659 12.9906,0.2389 11.4826,0.8779 C7.3316,2.6369 3.7116,5.4059 0.9296,8.8749 C5.8786,15.0449 13.4756,18.9999 21.9996,18.9999 C30.5246,18.9999 38.1216,15.0449 43.0706,8.8749 C40.2886,5.4059 36.6676,2.6369 32.5176,0.8779" id="Fill-4" fill="#1BA9F5" mask="url(#mask-4)"></path>
            </g>
            <path d="M27,0 C18.476,0 10.879,3.955 5.93,10.125 C8.712,13.594 12.332,16.363 16.482,18.122 C17.99,18.761 19.729,18.634 21.107,17.752 C22.81,16.664 24.83,16.031 27,16.031 C29.17,16.031 31.19,16.664 32.893,17.752 C34.271,18.634 36.01,18.761 37.518,18.122 C41.668,16.363 45.288,13.594 48.07,10.125 C43.121,3.955 35.524,0 27,0" id="Fill-7" fill="#0077CC"></path>
            <path d="M32.9063,27 C32.9063,30.262 30.2613,32.906 27.0003,32.906 C23.7383,32.906 21.0933,30.262 21.0933,27 C21.0933,23.738 23.7383,21.094 27.0003,21.094 C30.2613,21.094 32.9063,23.738 32.9063,27" id="Fill-9" fill="#343741"></path>
            <path d="M16.4824,18.1221 C12.3324,16.3631 8.7114,13.5941 5.9294,10.1251 C5.9294,10.1241 5.9304,10.1241 5.9304,10.1231 C2.2204,14.7451 0.0004,20.6121 0.0004,27.0001 C0.0004,31.5191 1.1164,35.7761 3.0794,39.5181 C6.2384,35.9631 10.1644,33.1251 14.5314,31.2741 C15.2224,30.9821 15.9364,30.7771 16.6654,30.6451 C16.2614,29.5031 16.0314,28.2801 16.0314,27.0001 C16.0314,22.9421 18.2404,19.4081 21.5154,17.5111 C21.3784,17.5901 21.2404,17.6671 21.1074,17.7521 C19.7284,18.6341 17.9904,18.7611 16.4824,18.1221" id="Fill-11" fill="#343741"></path>
        </g>
    </g>
</svg>